<?xml version="1.0" encoding="UTF-8"?>
<svg xmlns="http://www.w3.org/2000/svg" xmlns:xlink="http://www.w3.org/1999/xlink" viewBox="0 0 524.73 471.1">
  <defs>
    <style>
      .cls-1 {
        stroke: #333;
      }

      .cls-1, .cls-2 {
        stroke-miterlimit: 10;
      }

      .cls-1, .cls-3 {
        fill: #333;
      }

      .cls-2 {
        stroke: #1d1d1b;
      }

      .cls-2, .cls-4 {
        fill: none;
      }

      .cls-5 {
        fill: url(#Degradado_sin_nombre_16);
      }
    </style>
    <linearGradient id="Degradado_sin_nombre_16" data-name="Degradado sin nombre 16" x1="262.67" y1="395.66" x2="262.67" y2="75.65" gradientUnits="userSpaceOnUse">
      <stop offset=".19" stop-color="#fff"/>
      <stop offset=".23" stop-color="#e7e7e7"/>
      <stop offset=".32" stop-color="#a0a0a0"/>
      <stop offset=".4" stop-color="#6c6c6c"/>
      <stop offset=".47" stop-color="#4c4c4c"/>
      <stop offset=".5" stop-color="#404040"/>
      <stop offset=".53" stop-color="#4d4d4d"/>
      <stop offset=".6" stop-color="#6f6f6f"/>
      <stop offset=".68" stop-color="#a7a7a7"/>
      <stop offset=".79" stop-color="#f4f4f4"/>
      <stop offset=".8" stop-color="#fff"/>
    </linearGradient>
  </defs>
  <g id="Capa_5" data-name="Capa 5">
    <path class="cls-1" d="m523.98,198.59c-2.25,8.94-8.75,29.75-27.7,48.34-18.28,17.92-38.34,24.15-47.3,26.37v-74.71c6.79,3.28,19.96,8.55,37.3,8.59,17.56.04,30.89-5.3,37.7-8.59Z"/>
    <line class="cls-2" x1="448.98" y1="198.59" x2="448.98" y2="198.3"/>
    <path class="cls-1" d="m75.78,198.3v74.71c-6.79-3.28-19.96-8.55-37.3-8.59-17.56-.04-30.89,5.3-37.7,8.59,2.25-8.94,8.75-29.76,27.71-48.34,18.28-17.93,38.33-24.16,47.29-26.37Z"/>
    <line class="cls-2" x1="75.78" y1="273.3" x2="75.78" y2="273.01"/>
    <polygon class="cls-1" points="178.62 69.06 152.64 84.06 145.62 41.89 178.62 69.06"/>
    <polygon class="cls-1" points="156.64 389.41 182.63 404.4 149.61 431.57 156.64 389.41"/>
    <polygon class="cls-1" points="346.35 404.4 372.33 389.4 379.35 431.57 346.35 404.4"/>
    <polygon class="cls-1" points="368.7 82.75 342.72 67.75 375.73 40.58 368.7 82.75"/>
    <path class="cls-4" d="m287.47,148.8l-.07,65.9h-100v181.35-181.35h100-100"/>
    <path class="cls-1" d="m261.72,62.97l-150.11,85.83v173.99s0-173.99,0-173.99l.23,174.08c26.01,13.35,50.87,28.26,75.57,42.92v30.25l-101.68-57.99.13-203.95L225.45,54.38,261.72,1.61v61.36Z"/>
    <polygon class="cls-1" points="262.42 408.82 262.42 469.51 298.1 418.45 438.98 337.98 439.11 134.03 337.43 76.04 337.43 106.11 413 149.21 412.72 322.79 262.42 408.82"/>
    <path class="cls-4" d="m337.43,76.04v181.35h-99.72v65.49c-.38-21.71-.38-43.84,0-65.4"/>
    <polygon class="cls-3" points="187.66 214.31 187.66 126.86 237.46 98.41 237.83 214.31 187.66 214.31"/>
    <polygon class="cls-3" points="337.69 256.48 337.69 342.56 287.65 371.13 287.88 256.48 337.69 256.48"/>
  </g>
  <g id="Capa_6" data-name="Capa 6">
    <polygon class="cls-5" points="337.69 75.65 337.69 257 237.97 257 237.97 322.49 187.66 395.66 187.66 214.31 287.65 214.31 287.72 148.41 337.69 75.65"/>
  </g>
</svg>